<?xml version="1.0" encoding="UTF-8" standalone="no"?>
<svg viewBox="0 0 50 50"
 xmlns="http://www.w3.org/2000/svg" xmlns:xlink="http://www.w3.org/1999/xlink"  version="1.2" baseProfile="tiny">
<title>Qt SVG Document</title>
<desc>Generated with Qt</desc>
<defs>
</defs>
<g fill="none" stroke="black" stroke-width="1" fill-rule="evenodd" stroke-linecap="square" stroke-linejoin="bevel" >

<g fill="#000000" fill-opacity="1" stroke="none" transform="matrix(2.27273,0,0,2.27273,-63.9355,0.599243)"
font-family="SF Pro Display" font-size="10" font-weight="400" font-style="normal" 
opacity="0.00100002" >
<rect x="28.1316" y="-0.263667" width="22" height="22"/>
</g>

<g fill="#fafafa" fill-opacity="1" stroke="none" transform="matrix(2.27273,0,0,2.27273,-63.9355,0.599243)"
font-family="SF Pro Display" font-size="10" font-weight="400" font-style="normal" 
opacity="0.3" >
<path vector-effect="none" fill-rule="evenodd" d="M35.2422,5.8457 C34.9866,5.8457 34.731,5.94476 34.5352,6.14063 C34.1434,6.53236 34.1434,7.16295 34.5352,7.55469 L37.7168,10.7363 L34.5352,13.918 C34.1434,14.3097 34.1434,14.9403 34.5352,15.332 C34.9269,15.7238 35.5575,15.7238 35.9492,15.332 L39.1328,12.1504 L42.3145,15.332 C42.7062,15.7238 43.3368,15.7238 43.7285,15.332 C44.1203,14.9403 44.1203,14.3097 43.7285,13.918 L40.5469,10.7363 L43.7285,7.55469 C44.1203,7.16295 44.1203,6.53236 43.7285,6.14063 C43.3368,5.74889 42.7062,5.74889 42.3145,6.14063 L39.1328,9.32227 L35.9492,6.14063 C35.7533,5.94476 35.4978,5.8457 35.2422,5.8457 "/>
</g>

<g fill="none" stroke="#000000" stroke-opacity="1" stroke-width="1" stroke-linecap="square" stroke-linejoin="bevel" transform="matrix(1,0,0,1,0,0)"
font-family="SF Pro Display" font-size="10" font-weight="400" font-style="normal" 
>
</g>
</g>
</svg>
