<?xml version="1.0" encoding="UTF-8" standalone="no"?>
<svg viewBox="0 0 50 50"
 xmlns="http://www.w3.org/2000/svg" xmlns:xlink="http://www.w3.org/1999/xlink"  version="1.2" baseProfile="tiny">
<title>Qt SVG Document</title>
<desc>Generated with Qt</desc>
<defs>
</defs>
<g fill="none" stroke="black" stroke-width="1" fill-rule="evenodd" stroke-linecap="square" stroke-linejoin="bevel" >

<g fill="#000000" fill-opacity="1" stroke="none" transform="matrix(2.27273,0,0,2.27273,0,0)"
font-family="SF Pro Display" font-size="10" font-weight="400" font-style="normal" 
opacity="0.00100002" >
<rect x="0" y="0" width="22" height="22"/>
</g>

<g fill="#fafafa" fill-opacity="1" stroke="none" transform="matrix(-1.60706,-1.60706,-1.60706,1.60706,45.4545,1.13636)"
font-family="SF Pro Display" font-size="10" font-weight="400" font-style="normal" 
>
<path vector-effect="none" fill-rule="evenodd" d="M-2.06066,8.26358 C-2.06066,7.7251 -1.61742,7.28858 -1.07066,7.28858 L-1.05066,7.28858 C-0.503898,7.28858 -0.0606596,7.7251 -0.0606596,8.26358 L-0.0606596,19.3136 C-0.0606596,19.8521 -0.503898,20.2886 -1.05066,20.2886 L-1.07066,20.2886 C-1.61742,20.2886 -2.06066,19.8521 -2.06066,19.3136 L-2.06066,8.26358"/>
</g>

<g fill="#fafafa" fill-opacity="1" stroke="none" transform="matrix(1.60706,-1.60706,1.60706,1.60706,45.4545,1.13636)"
font-family="SF Pro Display" font-size="10" font-weight="400" font-style="normal" 
>
<path vector-effect="none" fill-rule="evenodd" d="M-14.7886,-4.46434 C-14.7886,-5.00282 -14.3453,-5.43934 -13.7986,-5.43934 L-13.7786,-5.43934 C-13.2318,-5.43934 -12.7886,-5.00282 -12.7886,-4.46434 L-12.7886,6.58566 C-12.7886,7.12414 -13.2318,7.56066 -13.7786,7.56066 L-13.7986,7.56066 C-14.3453,7.56066 -14.7886,7.12414 -14.7886,6.58566 L-14.7886,-4.46434"/>
</g>

<g fill="none" stroke="#000000" stroke-opacity="1" stroke-width="1" stroke-linecap="square" stroke-linejoin="bevel" transform="matrix(1,0,0,1,0,0)"
font-family="SF Pro Display" font-size="10" font-weight="400" font-style="normal" 
>
</g>
</g>
</svg>
