<?xml version="1.0" encoding="UTF-8" standalone="no"?>
<svg viewBox="0 0 50 50"
 xmlns="http://www.w3.org/2000/svg" xmlns:xlink="http://www.w3.org/1999/xlink"  version="1.2" baseProfile="tiny">
<title>Qt SVG Document</title>
<desc>Generated with Qt</desc>
<defs>
</defs>
<g fill="none" stroke="black" stroke-width="1" fill-rule="evenodd" stroke-linecap="square" stroke-linejoin="bevel" >

<g fill="none" stroke="none" transform="matrix(2.27273,0,0,2.27273,-0.301966,-68.5326)"
font-family="SF Pro Display" font-size="10" font-weight="400" font-style="normal" 
>
<rect x="0.132865" y="30.1543" width="22" height="22"/>
</g>

<g fill="#fafafa" fill-opacity="1" stroke="none" transform="matrix(2.27273,0,0,2.27273,125,-67.8983)"
font-family="SF Pro Display" font-size="10" font-weight="400" font-style="normal" 
>
<path vector-effect="none" fill-rule="evenodd" d="M-49,40.8753 C-49,40.323 -48.5523,39.8753 -48,39.8753 L-40,39.8753 C-39.4477,39.8753 -39,40.323 -39,40.8753 C-39,41.4275 -39.4477,41.8753 -40,41.8753 L-48,41.8753 C-48.5523,41.8753 -49,41.4275 -49,40.8753 "/>
</g>

<g fill="#fafafa" fill-opacity="1" stroke="none" transform="matrix(2.27273,0,0,2.27273,125,-67.8983)"
font-family="SF Pro Display" font-size="10" font-weight="400" font-style="normal" 
opacity="0.3" >
<circle cx="-44" cy="40.8753" r="11"/>
</g>

<g fill="none" stroke="#000000" stroke-opacity="1" stroke-width="1" stroke-linecap="square" stroke-linejoin="bevel" transform="matrix(1,0,0,1,0,0)"
font-family="SF Pro Display" font-size="10" font-weight="400" font-style="normal" 
>
</g>
</g>
</svg>
