<?xml version="1.0" encoding="UTF-8" standalone="no"?>
<svg viewBox="0 0 50 50"
 xmlns="http://www.w3.org/2000/svg" xmlns:xlink="http://www.w3.org/1999/xlink"  version="1.2" baseProfile="tiny">
<title>Qt SVG Document</title>
<desc>Generated with Qt</desc>
<defs>
</defs>
<g fill="none" stroke="black" stroke-width="1" fill-rule="evenodd" stroke-linecap="square" stroke-linejoin="bevel" >

<g fill="none" stroke="none" transform="matrix(2.27273,0,0,2.27273,-6.81818,-129.545)"
font-family="SF Pro Display" font-size="10" font-weight="400" font-style="normal" 
>
<rect x="3" y="57" width="22" height="22"/>
</g>

<g fill="#fafafa" fill-opacity="1" stroke="none" transform="matrix(2.27273,0,0,2.27273,125,-128.163)"
font-family="SF Pro Display" font-size="10" font-weight="400" font-style="normal" 
>
<path vector-effect="none" fill-rule="evenodd" d="M-49,67.3918 C-49,66.8395 -48.5523,66.3918 -48,66.3918 L-40,66.3918 C-39.4477,66.3918 -39,66.8395 -39,67.3918 C-39,67.9441 -39.4477,68.3918 -40,68.3918 L-48,68.3918 C-48.5523,68.3918 -49,67.9441 -49,67.3918 "/>
</g>

<g fill="#fafafa" fill-opacity="1" stroke="none" transform="matrix(2.27273,0,0,2.27273,125,-128.163)"
font-family="SF Pro Display" font-size="10" font-weight="400" font-style="normal" 
opacity="0.4" >
<circle cx="-44" cy="67.3918" r="11"/>
</g>

<g fill="none" stroke="#000000" stroke-opacity="1" stroke-width="1" stroke-linecap="square" stroke-linejoin="bevel" transform="matrix(1,0,0,1,0,0)"
font-family="SF Pro Display" font-size="10" font-weight="400" font-style="normal" 
>
</g>
</g>
</svg>
